<svg xmlns="http://www.w3.org/2000/svg" viewBox="0 0 1200 450">
  <defs>
    <linearGradient id="g" x1="0" y1="0" x2="1" y2="1">
      <stop offset="0%" stop-color="#1d4ed8"/>
      <stop offset="100%" stop-color="#60a5fa"/>
    </linearGradient>
  </defs>
  <rect width="1200" height="450" rx="40" fill="url(#g)"/>
  <circle cx="180" cy="100" r="100" fill="#93c5fd" opacity="0.3"/>
  <circle cx="1040" cy="350" r="140" fill="#bfdbfe" opacity="0.3"/>
  <g transform="translate(770,40)">
    <rect width="340" height="340" rx="60" fill="#E6F0FF"/>
    <ellipse cx="170" cy="295" rx="70" ry="14" fill="#c9d6ee"/>
    <circle cx="170" cy="125" r="44" fill="#ffd7b8"/>
    <rect x="126" y="170" width="88" height="110" rx="28" fill="#3f79ff"/>
    <rect x="108" y="180" width="22" height="72" rx="11" fill="#ffd7b8"/>
    <rect x="210" y="180" width="22" height="72" rx="11" fill="#ffd7b8"/>
    <rect x="140" y="246" width="22" height="52" rx="10" fill="#1f4bb8"/>
    <rect x="178" y="246" width="22" height="52" rx="10" fill="#1f4bb8"/>
    <rect x="218" y="176" width="46" height="14" rx="6" fill="#ffd54d"/>
    <path d="M246 176v-13M234 176v-13" stroke="#55627d" stroke-width="4" stroke-linecap="round"/>
  </g>
</svg>
