<svg xmlns="http://www.w3.org/2000/svg" viewBox="0 0 512 512">
  <defs>
    <linearGradient id="bg" x1="0" y1="0" x2="1" y2="1">
      <stop offset="0%" stop-color="#cfe6ff"/>
      <stop offset="100%" stop-color="#e7dcff"/>
    </linearGradient>
    <linearGradient id="shirt" x1="0" y1="0" x2="0" y2="1">
      <stop offset="0%" stop-color="#5b80ff"/>
      <stop offset="100%" stop-color="#3f57cd"/>
    </linearGradient>
    <filter id="soft" x="-20%" y="-20%" width="140%" height="140%">
      <feDropShadow dx="0" dy="6" stdDeviation="8" flood-color="#6f7aa8" flood-opacity=".25"/>
    </filter>
  </defs>
  <rect width="512" height="512" rx="96" fill="url(#bg)"/>
  <ellipse cx="256" cy="426" rx="112" ry="26" fill="#9aa4ce" opacity=".26"/>
  <g filter="url(#soft)">
    <circle cx="256" cy="162" r="62" fill="#ffd8bf"/>
    <path d="M214 146c8-22 76-24 84 0-5-30-77-35-84 0z" fill="#6d4f43"/>
    <rect x="184" y="230" width="144" height="170" rx="44" fill="url(#shirt)"/>
    <rect x="160" y="246" width="34" height="104" rx="17" fill="#ffd8bf"/>
    <rect x="318" y="246" width="34" height="104" rx="17" fill="#ffd8bf"/>
    <rect x="210" y="334" width="38" height="92" rx="18" fill="#2c3f9a"/>
    <rect x="264" y="334" width="38" height="92" rx="18" fill="#2c3f9a"/>
    <circle cx="236" cy="166" r="7" fill="#24324f"/>
    <circle cx="276" cy="166" r="7" fill="#24324f"/>
    <path d="M236 194q20 16 40 0" stroke="#24324f" stroke-width="7" fill="none" stroke-linecap="round"/>
    <path d="M208 236h96" stroke="#b9c7ff" stroke-width="8" stroke-linecap="round" opacity=".5"/>
    <rect x="326" y="252" width="62" height="20" rx="8" fill="#ffd95a"/><path d="M344 252v-18M370 252v-18" stroke="#5f6f92" stroke-width="6" stroke-linecap="round"/>
  </g>
</svg>